<?xml version="1.0" encoding="iso-8859-1"?>
<!-- Generator: Adobe Illustrator 19.0.0, SVG Export Plug-In . SVG Version: 6.00 Build 0)  -->
<svg version="1.1" id="Capa_1" xmlns="http://www.w3.org/2000/svg" xmlns:xlink="http://www.w3.org/1999/xlink" x="0px" y="0px"
	 viewBox="0 0 512 512" style="enable-background:new 0 0 512 512;" xml:space="preserve">
<g>
	<g>
		<path d="M481.976,276.028V85.876H30.024v190.152H0V396.1h30.024v30.024h30V396.1h391.952v30.024h30V396.1H512V276.028H481.976z
			 M60.024,115.876h391.952v100.273c-9.203-5.883-19.973-9.52-31.542-10.094c-6.937-34.259-37.279-60.131-73.554-60.131h-30.832
			c-24.529,0-46.345,11.831-60.048,30.084c-13.703-18.253-35.519-30.084-60.048-30.084H165.12
			c-36.275,0-66.617,25.872-73.554,60.131c-11.569,0.574-22.339,4.211-31.542,10.094V115.876z M389.35,205.972H273.577
			c6.194-17.486,22.889-30.048,42.47-30.048h30.832C366.461,175.924,383.156,188.486,389.35,205.972z M238.422,205.972H122.65
			c6.194-17.486,22.889-30.048,42.47-30.048h30.832C215.534,175.924,232.228,188.486,238.422,205.972z M60.024,270.764
			c0-19.185,15.608-34.792,34.792-34.792h322.367c19.185,0,34.792,15.607,34.792,34.792v5.264H60.024V270.764z M482,366.1H30
			v-60.072h452V366.1z"/>
	</g>
</g>
<g>
</g>
<g>
</g>
<g>
</g>
<g>
</g>
<g>
</g>
<g>
</g>
<g>
</g>
<g>
</g>
<g>
</g>
<g>
</g>
<g>
</g>
<g>
</g>
<g>
</g>
<g>
</g>
<g>
</g>
</svg>
