<?xml version="1.0" encoding="iso-8859-1"?>
<!-- Generator: Adobe Illustrator 19.0.0, SVG Export Plug-In . SVG Version: 6.00 Build 0)  -->
<svg version="1.1" id="Capa_1" xmlns="http://www.w3.org/2000/svg" xmlns:xlink="http://www.w3.org/1999/xlink" x="0px" y="0px"
	 viewBox="0 0 512 512" style="enable-background:new 0 0 512 512;" xml:space="preserve">
<g>
	<g>
		<path d="M451.073,360.201H467c24.813,0,45-20.187,45-45s-20.187-45-45-45h-15v-30.023H270.977v108.426
			c0,16.165,5.274,31.115,14.177,43.243h-44.178V150.178h75.488v30.023h90.048v-30.023h75.465V99.402
			c0-38.21-31.087-69.297-69.297-69.297H154.91C69.492,30.105,0,99.598,0,185.016v296.879h512v-90.048h-74.177
			C444.552,382.68,449.203,371.901,451.073,360.201z M452,300.201h15c8.271,0,15,6.729,15,15s-6.729,15-15,15h-15V300.201z
			 M240.976,60.105H412.68c21.668,0,39.297,17.629,39.297,39.297v20.775h-75.465V150.2h-30.048v-30.023H240.976V60.105z
			 M300.977,270.178H422v78.426c0,23.845-19.398,43.243-43.243,43.243H344.22c-23.845,0-43.243-19.399-43.243-43.243V270.178z
			 M482,421.847v30.048H30V185.016c0-68.876,56.035-124.91,124.91-124.91h56.066v361.741H482z"/>
	</g>
</g>
<g>
	<g>
		<path d="M120.488,300.87C87.135,300.87,60,328.005,60,361.358c0,33.353,27.135,60.488,60.488,60.488
			c33.354,0,60.488-27.135,60.488-60.488C180.976,328.005,153.841,300.87,120.488,300.87z M120.488,391.847
			C103.677,391.847,90,378.17,90,361.358s13.677-30.488,30.488-30.488c16.812,0,30.488,13.677,30.488,30.488
			C150.976,378.169,137.299,391.847,120.488,391.847z"/>
	</g>
</g>
<g>
	<g>
		<rect x="59.988" y="240.82" width="121" height="30"/>
	</g>
</g>
<g>
	<g>
		<rect x="59.988" y="180.77" width="121" height="30"/>
	</g>
</g>
<g>
</g>
<g>
</g>
<g>
</g>
<g>
</g>
<g>
</g>
<g>
</g>
<g>
</g>
<g>
</g>
<g>
</g>
<g>
</g>
<g>
</g>
<g>
</g>
<g>
</g>
<g>
</g>
<g>
</g>
</svg>
