<?xml version="1.0" encoding="iso-8859-1"?>
<!-- Generator: Adobe Illustrator 19.0.0, SVG Export Plug-In . SVG Version: 6.00 Build 0)  -->
<svg version="1.1" id="Capa_1" xmlns="http://www.w3.org/2000/svg" xmlns:xlink="http://www.w3.org/1999/xlink" x="0px" y="0px"
	 viewBox="0 0 512 512" style="enable-background:new 0 0 512 512;" xml:space="preserve">
<g>
	<g>
		<path d="M493.527,246.763L271,100.392V50.028C271,38.984,279.984,30,291.028,30s20.028,8.984,20.028,20.028v24.424h30V50.028
			C341.056,22.442,318.613,0,291.028,0C263.443,0,241,22.442,241,50.028v50.364L18.474,246.763C6.906,254.37,0,267.179,0,281.024
			c0,22.612,18.396,41.009,41.009,41.009h59.521V512h310.94V322.033h59.521c22.612,0,41.009-18.396,41.009-41.009
			C512,267.179,505.094,254.37,493.527,246.763z M160.578,482H130.53V292.009h30.048V482z M220.626,482h-30.048V292.009h30.048V482z
			 M381.47,482H250.626V292.009H381.47V482z M470.991,292.033H411.47v-30.024H100.53v30.024H41.009
			c-6.07,0-11.009-4.938-11.009-11.009c0-3.717,1.854-7.155,4.959-9.197L256,126.434l221.042,145.394
			c3.104,2.042,4.958,5.48,4.958,9.197C482,287.095,477.062,292.033,470.991,292.033z"/>
	</g>
</g>
<g>
</g>
<g>
</g>
<g>
</g>
<g>
</g>
<g>
</g>
<g>
</g>
<g>
</g>
<g>
</g>
<g>
</g>
<g>
</g>
<g>
</g>
<g>
</g>
<g>
</g>
<g>
</g>
<g>
</g>
</svg>
