<?xml version="1.0" encoding="iso-8859-1"?>
<!-- Generator: Adobe Illustrator 19.0.0, SVG Export Plug-In . SVG Version: 6.00 Build 0)  -->
<svg version="1.1" id="Capa_1" xmlns="http://www.w3.org/2000/svg" xmlns:xlink="http://www.w3.org/1999/xlink" x="0px" y="0px"
	 viewBox="0 0 512 512" style="enable-background:new 0 0 512 512;" xml:space="preserve">
<g>
	<g>
		<path d="M120.12,0.012v121.676H0v90.048h330.24v-90.048H210.12V90.012H422v421.976h90V0.012H120.12z M300.24,151.688v30.048H30
			v-30.048H300.24z M482,481.988h-30V60.012H180.12v61.676h-30V30.012H482V481.988z"/>
	</g>
</g>
<g>
	<g>
		<rect x="30.02" y="241.77" width="30" height="30.02"/>
	</g>
</g>
<g>
	<g>
		<rect x="90.07" y="241.77" width="30" height="30.02"/>
	</g>
</g>
<g>
	<g>
		<rect x="150.12" y="241.77" width="30" height="30.02"/>
	</g>
</g>
<g>
	<g>
		<rect x="210.17" y="241.77" width="30" height="30.02"/>
	</g>
</g>
<g>
	<g>
		<rect x="270.22" y="241.77" width="30" height="30.02"/>
	</g>
</g>
<g>
	<g>
		<rect x="30.02" y="301.82" width="30" height="30.02"/>
	</g>
</g>
<g>
	<g>
		<rect x="90.07" y="301.82" width="30" height="30.02"/>
	</g>
</g>
<g>
	<g>
		<rect x="150.12" y="301.82" width="30" height="30.02"/>
	</g>
</g>
<g>
	<g>
		<rect x="210.17" y="301.82" width="30" height="30.02"/>
	</g>
</g>
<g>
	<g>
		<rect x="270.22" y="301.82" width="30" height="30.02"/>
	</g>
</g>
<g>
	<g>
		<rect x="30.02" y="361.87" width="30" height="30.02"/>
	</g>
</g>
<g>
	<g>
		<rect x="90.07" y="361.87" width="30" height="30.02"/>
	</g>
</g>
<g>
	<g>
		<rect x="150.12" y="361.87" width="30" height="30.02"/>
	</g>
</g>
<g>
	<g>
		<rect x="210.17" y="361.87" width="30" height="30.02"/>
	</g>
</g>
<g>
	<g>
		<rect x="270.22" y="361.87" width="30" height="30.02"/>
	</g>
</g>
<g>
	<g>
		<rect x="30.02" y="421.92" width="30" height="30.02"/>
	</g>
</g>
<g>
	<g>
		<rect x="90.07" y="421.92" width="30" height="30.02"/>
	</g>
</g>
<g>
	<g>
		<rect x="150.12" y="421.92" width="30" height="30.02"/>
	</g>
</g>
<g>
	<g>
		<rect x="210.17" y="421.92" width="30" height="30.02"/>
	</g>
</g>
<g>
	<g>
		<rect x="270.22" y="421.92" width="30" height="30.02"/>
	</g>
</g>
<g>
	<g>
		<rect x="30.02" y="481.96" width="30" height="30.02"/>
	</g>
</g>
<g>
	<g>
		<rect x="90.07" y="481.96" width="30" height="30.02"/>
	</g>
</g>
<g>
	<g>
		<rect x="150.12" y="481.96" width="30" height="30.02"/>
	</g>
</g>
<g>
	<g>
		<rect x="210.17" y="481.96" width="30" height="30.02"/>
	</g>
</g>
<g>
	<g>
		<rect x="270.22" y="481.96" width="30" height="30.02"/>
	</g>
</g>
<g>
</g>
<g>
</g>
<g>
</g>
<g>
</g>
<g>
</g>
<g>
</g>
<g>
</g>
<g>
</g>
<g>
</g>
<g>
</g>
<g>
</g>
<g>
</g>
<g>
</g>
<g>
</g>
<g>
</g>
</svg>
